<?xml version="1.0" encoding="UTF-8" standalone="no"?>
<svg
   xmlns:dc="http://purl.org/dc/elements/1.1/"
   xmlns:cc="http://creativecommons.org/ns#"
   xmlns:rdf="http://www.w3.org/1999/02/22-rdf-syntax-ns#"
   xmlns:svg="http://www.w3.org/2000/svg"
   xmlns="http://www.w3.org/2000/svg"
   xmlns:sodipodi="http://sodipodi.sourceforge.net/DTD/sodipodi-0.dtd"
   xmlns:inkscape="http://www.inkscape.org/namespaces/inkscape"
   width="102"
   height="18.009212"
   viewBox="0 0 102 18.009212"
   id="svg2"
   version="1.1"
   inkscape:version="0.91 r13725"
   sodipodi:docname="cornerstone_logo_white100.svg"
   inkscape:export-filename="/Users/alexloya/Desktop/cornerstone_logo_white200.png"
   inkscape:export-xdpi="300"
   inkscape:export-ydpi="300">
  <sodipodi:namedview
     pagecolor="#ffffff"
     bordercolor="#666666"
     borderopacity="1"
     objecttolerance="10"
     gridtolerance="10"
     guidetolerance="10"
     inkscape:pageopacity="0"
     inkscape:pageshadow="2"
     inkscape:window-width="1569"
     inkscape:window-height="903"
     id="namedview21"
     showgrid="false"
     inkscape:zoom="1.03"
     inkscape:cx="70.906874"
     inkscape:cy="-38.107708"
     inkscape:window-x="0"
     inkscape:window-y="0"
     inkscape:window-maximized="0"
     inkscape:current-layer="svg2"
     units="px"
     fit-margin-top="1"
     fit-margin-right="1"
     fit-margin-bottom="1"
     fit-margin-left="1" />
  <defs
     id="defs4" />
  <metadata
     id="metadata7">
    <rdf:RDF>
      <cc:Work
         rdf:about="">
        <dc:format>image/svg+xml</dc:format>
        <dc:type
           rdf:resource="http://purl.org/dc/dcmitype/StillImage" />
        <dc:title></dc:title>
      </cc:Work>
    </rdf:RDF>
  </metadata>
  <g
     transform="matrix(0.07892671,0,0,0.07892671,66.603227,-60.211033)"
     id="layer1"
     style="fill:#ffffff;fill-opacity:1"
     inkscape:export-filename="/Users/alexloya/Desktop/logo_blue.png"
     inkscape:export-xdpi="90"
     inkscape:export-ydpi="90">
    <g
       id="text10307"
       style="font-style:normal;font-weight:normal;font-size:166.68089294px;line-height:125%;font-family:sans-serif;letter-spacing:0px;word-spacing:0px;fill:#ffffff;fill-opacity:1;stroke:none;stroke-width:0.80000001;stroke-linecap:butt;stroke-linejoin:miter;stroke-miterlimit:4;stroke-dasharray:none;stroke-opacity:1"
       transform="scale(1.2481115,0.80121047)">
      <path
         id="path5308"
         style="font-style:normal;font-variant:normal;font-weight:normal;font-stretch:normal;font-family:Anton;-inkscape-font-specification:Anton;fill:#ffffff;fill-opacity:1;stroke:none;stroke-width:0.80000001;stroke-miterlimit:4;stroke-dasharray:none;stroke-opacity:1"
         d="m -590.76068,1043.1655 0,24.4975 q 0,16.9285 -9.60369,24.9045 -9.60368,7.8945 -26.85776,7.8945 -15.30078,0 -24.90447,-8.7084 -9.60368,-8.7898 -9.60368,-24.9045 l 0,-60.1451 q 0,-19.28872 8.46426,-28.81102 8.54565,-9.60368 26.69499,-9.60368 7.40623,0 13.67304,1.8719 6.26681,1.79052 11.06865,5.37156 4.88323,3.58103 7.6504,9.44091 2.76716,5.77848 2.76716,13.34749 l 0,22.86984 -28.32273,0 0,-15.0567 q 0,-11.63834 -6.83652,-11.63834 -4.06936,0 -5.37155,2.60439 -1.3022,2.523 -1.3022,7.08065 l 0,61.2846 q 0,3.9879 1.79052,6.9179 1.8719,2.9299 4.88323,2.9299 2.76716,0 4.80184,-2.1161 2.03468,-2.1974 2.03468,-7.7317 l 0,-22.3001 28.97383,0 z"
         inkscape:connector-curvature="0" />
      <path
         id="path5310"
         style="font-style:normal;font-variant:normal;font-weight:normal;font-stretch:normal;font-family:Anton;-inkscape-font-specification:Anton;fill:#ffffff;fill-opacity:1;stroke:none;stroke-width:0.80000001;stroke-miterlimit:4;stroke-dasharray:none;stroke-opacity:1"
         d="m -580.91283,1064.0006 0,-61.7729 q 0,-16.196 8.70842,-25.0672 8.78981,-8.95259 26.36944,-9.19675 18.06795,0.24416 26.77637,9.19675 8.78982,8.8712 8.78982,25.0672 l 0,61.7729 q 0,7.8945 -2.03468,14.4055 -1.95329,6.4296 -6.02265,11.4756 -4.06936,5.046 -11.06865,7.8132 -6.91791,2.7671 -15.95189,2.523 -9.52229,0.2441 -16.52159,-2.523 -6.91791,-2.7672 -10.98727,-7.8132 -4.06935,-5.046 -6.10403,-11.4756 -1.95329,-6.511 -1.95329,-14.4055 z m 35.32202,10.8245 q 1.54636,0 2.68578,-0.5697 1.22081,-0.6511 1.8719,-1.8719 0.73249,-1.3022 1.13942,-2.4416 0.40694,-1.1395 0.56971,-3.0114 0.16278,-1.9533 0.16278,-2.9299 0.0814,-1.058 0.0814,-2.8486 0,-0.4069 0,-0.6511 l 0,-52.0877 q 0,-0.4884 0,-1.9533 0.0814,-1.465 0,-2.1975 0,-0.7325 -0.0814,-2.116 0,-1.465 -0.24416,-2.1975 -0.16278,-0.81387 -0.48833,-1.95329 -0.24416,-1.22081 -0.73248,-1.79052 -0.48832,-0.65109 -1.13942,-1.30219 -0.6511,-0.73249 -1.62775,-0.97665 -0.97664,-0.32555 -2.19745,-0.32555 -1.70913,0 -3.01132,0.56971 -1.22081,0.56972 -1.95329,1.87191 -0.73249,1.22081 -1.22081,2.27884 -0.48832,0.97665 -0.6511,3.01134 -0.16277,1.9533 -0.16277,2.8485 0,0.8139 0,2.8486 0,0.3255 0,0.5697 0,0.2442 0,0.4883 l 0,52.0878 q 0,1.7905 0,2.8485 0.0814,1.0581 0.24416,3.0928 0.16277,2.0346 0.56971,3.3368 0.48832,1.2208 1.22081,2.6044 0.73248,1.3836 1.95329,2.1161 1.30219,0.6511 3.01132,0.6511 z"
         inkscape:connector-curvature="0" />
      <path
         id="path5312"
         style="font-style:normal;font-variant:normal;font-weight:normal;font-stretch:normal;font-family:Anton;-inkscape-font-specification:Anton;fill:#ffffff;fill-opacity:1;stroke:none;stroke-width:0.80000001;stroke-miterlimit:4;stroke-dasharray:none;stroke-opacity:1"
         d="m -468.84272,1039.9914 q 0,0 0,59.0057 l -28.97383,0 0,-129.64977 43.94906,0 q 6.75514,0 11.55698,1.87191 4.80184,1.79051 7.56901,4.80184 2.76716,2.92994 4.31351,7.89455 1.62775,4.88323 2.11607,9.84785 0.48832,4.88323 0.48832,11.88252 0,3.6624 -0.16277,6.0227 -0.0814,2.2788 -0.89526,5.8598 -0.73248,3.4997 -2.11607,5.8599 -1.38358,2.3602 -4.23213,4.6391 -2.76716,2.2788 -6.75513,3.4996 3.98797,0.7325 6.59236,2.7672 2.60439,1.9533 3.74381,4.8832 1.13942,2.9299 1.54635,5.453 0.40694,2.4416 0.40694,5.5343 0,32.1479 -0.32555,48.8323 l -27.99718,0 0,-50.5415 q 0,-3.0113 -0.6511,-4.8018 -0.56971,-1.7905 -2.27884,-2.523 -1.62774,-0.8139 -3.1741,-0.9766 -1.54635,-0.1628 -4.72045,-0.1628 z m 0.16277,-46.63486 0,24.17196 7.16207,0 q 5.6971,0 5.6971,-11.8825 0,-7.89455 -2.27884,-10.092 -2.19745,-2.19746 -9.03397,-2.19746 l -1.54636,0 z"
         inkscape:connector-curvature="0" />
      <path
         id="path5314"
         style="font-style:normal;font-variant:normal;font-weight:normal;font-stretch:normal;font-family:Anton;-inkscape-font-specification:Anton;fill:#ffffff;fill-opacity:1;stroke:none;stroke-width:0.80000001;stroke-miterlimit:4;stroke-dasharray:none;stroke-opacity:1"
         d="m -346.11089,969.34733 0,129.64977 -27.99718,0 -14.32414,-64.8656 0,64.8656 -27.99718,0 0,-129.64977 29.46215,0 13.18472,62.01697 0,-62.01697 27.67163,0 z"
         inkscape:connector-curvature="0" />
      <path
         id="path5316"
         style="font-style:normal;font-variant:normal;font-weight:normal;font-stretch:normal;font-family:Anton;-inkscape-font-specification:Anton;fill:#ffffff;fill-opacity:1;stroke:none;stroke-width:0.80000001;stroke-miterlimit:4;stroke-dasharray:none;stroke-opacity:1"
         d="m -331.78675,1098.9971 0,-129.64977 57.29656,0 0,25.14863 -28.15996,0 0,25.31144 27.02054,0 0,24.3347 -27.02054,0 0,29.5436 30.03186,0 0,25.3114 -59.16846,0 z"
         inkscape:connector-curvature="0" />
      <path
         id="path5318"
         style="font-style:normal;font-variant:normal;font-weight:normal;font-stretch:normal;font-family:Anton;-inkscape-font-specification:Anton;fill:#ffffff;fill-opacity:1;stroke:none;stroke-width:0.80000001;stroke-miterlimit:4;stroke-dasharray:none;stroke-opacity:1"
         d="m -232.49444,1039.9914 q 0,0 0,59.0057 l -28.97383,0 0,-129.64977 43.94907,0 q 6.75513,0 11.55697,1.87191 4.80184,1.79051 7.56901,4.80184 2.76716,2.92994 4.31352,7.89455 1.62774,4.88323 2.11606,9.84785 0.48833,4.88323 0.48833,11.88252 0,3.6624 -0.16278,6.0227 -0.0814,2.2788 -0.89526,5.8598 -0.73248,3.4997 -2.11606,5.8599 -1.38359,2.3602 -4.23214,4.6391 -2.76716,2.2788 -6.75513,3.4996 3.98797,0.7325 6.59236,2.7672 2.60439,1.9533 3.74381,4.8832 1.13942,2.9299 1.54636,5.453 0.40693,2.4416 0.40693,5.5343 0,32.1479 -0.32555,48.8323 l -27.99718,0 0,-50.5415 q 0,-3.0113 -0.6511,-4.8018 -0.56971,-1.7905 -2.27884,-2.523 -1.62774,-0.8139 -3.1741,-0.9766 -1.54635,-0.1628 -4.72045,-0.1628 z m 0.16277,-46.63486 0,24.17196 7.16207,0 q 5.6971,0 5.6971,-11.8825 0,-7.89455 -2.27884,-10.092 -2.19745,-2.19746 -9.03397,-2.19746 l -1.54636,0 z"
         inkscape:connector-curvature="0" />
      <path
         id="path5320"
         style="font-style:normal;font-variant:normal;font-weight:normal;font-stretch:normal;font-family:Anton;-inkscape-font-specification:Anton;fill:#ffffff;fill-opacity:1;stroke:none;stroke-width:0.80000001;stroke-miterlimit:4;stroke-dasharray:none;stroke-opacity:1"
         d="m -146.30542,1100.462 q -19.93985,0 -28.48551,-9.1153 -8.46426,-9.1154 -8.46426,-28.16 l 0,-12.6964 28.32273,0 0,11.6384 q 0,12.5336 6.83652,12.5336 3.1741,0 4.96462,-2.4416 1.8719,-2.4416 1.8719,-6.4296 0,-5.2088 -1.46497,-8.7898 -1.38358,-3.581 -4.31352,-6.7551 -2.84855,-3.2555 -9.44091,-8.9526 l -12.12668,-10.499 q -14.64969,-12.615 -14.64969,-28.4855 0,-17.25405 8.78981,-25.63692 8.8712,-8.46427 24.33476,-8.46427 0.40694,0 0.73249,0 0.32554,0 4.31352,0 3.98797,0 10.25478,1.87191 6.26681,1.79051 11.15004,6.10403 4.88323,4.23214 7.32484,11.88253 2.44162,7.569 2.44162,18.55622 l -29.05522,0 -0.16277,-7.81312 q -0.0814,-2.19745 -1.87191,-3.90658 -1.79051,-1.70913 -3.98797,-1.70913 -2.84855,0 -4.88323,1.79052 -1.95329,1.70913 -1.95329,4.47629 0,5.53432 8.05733,12.04532 l 17.33546,13.9986 q 4.23214,3.4182 7.32485,6.9993 3.1741,3.4996 4.96461,6.9993 1.87191,3.4182 3.01133,6.2668 1.13942,2.7671 1.54635,6.104 0.48833,3.2555 0.56971,4.9646 0.0814,1.6278 0.0814,4.3135 0,6.8366 -0.89526,12.4523 -0.89526,5.5343 -3.1741,10.7431 -2.27884,5.1274 -6.02265,8.627 -3.66242,3.4183 -9.60368,5.453 -5.85988,2.0346 -13.67304,2.0346 z"
         inkscape:connector-curvature="0" />
      <path
         id="path5322"
         style="font-style:normal;font-variant:normal;font-weight:normal;font-stretch:normal;font-family:Anton;-inkscape-font-specification:Anton;fill:#ffffff;fill-opacity:1;stroke:none;stroke-width:0.80000001;stroke-miterlimit:4;stroke-dasharray:none;stroke-opacity:1"
         d="m -108.05347,969.34733 62.668109,0 0,24.98586 -17.009915,0 0,104.66391 -28.648279,0 0,-104.66391 -17.009915,0 0,-24.98586 z"
         inkscape:connector-curvature="0" />
      <path
         id="path5324"
         style="font-style:normal;font-variant:normal;font-weight:normal;font-stretch:normal;font-family:Anton;-inkscape-font-specification:Anton;fill:#ffffff;fill-opacity:1;stroke:none;stroke-width:0.80000001;stroke-miterlimit:4;stroke-dasharray:none;stroke-opacity:1"
         d="m -38.223296,1064.0006 0,-61.7729 q 0,-16.196 8.708425,-25.0672 8.789813,-8.95259 26.3694383,-9.19675 18.0679487,0.24416 26.7763737,9.19675 8.789813,8.8712 8.789813,25.0672 l 0,61.7729 q 0,7.8945 -2.034679,14.4055 -1.953292,6.4296 -6.022649,11.4756 -4.069358,5.046 -11.068653,7.8132 -6.9179086,2.7671 -15.9518828,2.523 -9.5222972,0.2441 -16.5215922,-2.523 -6.917908,-2.7672 -10.987266,-7.8132 -4.069358,-5.046 -6.104037,-11.4756 -1.953291,-6.511 -1.953291,-14.4055 z m 35.3220247,10.8245 q 1.546356,0 2.68577615,-0.5697 1.22080735,-0.6511 1.87190455,-1.8719 0.7324844,-1.3022 1.1394202,-2.4416 0.4069358,-1.1395 0.5697101,-3.0114 0.1627743,-1.9533 0.1627743,-2.9299 0.081387,-1.058 0.081387,-2.8486 0,-0.4069 0,-0.6511 l 0,-52.0877 q 0,-0.4884 0,-1.9533 0.081387,-1.465 0,-2.1975 0,-0.7325 -0.081387,-2.116 0,-1.465 -0.2441615,-2.1975 -0.1627743,-0.81387 -0.4883229,-1.95329 -0.2441615,-1.22081 -0.7324844,-1.79052 -0.4883229,-0.65109 -1.13942018,-1.30219 -0.65109724,-0.73249 -1.6277431,-0.97665 -0.97664582,-0.32555 -2.19745322,-0.32555 -1.7091302,0 -3.0113247,0.56971 -1.2208073,0.56972 -1.9532917,1.87191 -0.7324844,1.22081 -1.2208073,2.27884 -0.4883229,0.97665 -0.6510973,3.01134 -0.1627743,1.9533 -0.1627743,2.8485 0,0.8139 0,2.8486 0,0.3255 0,0.5697 0,0.2442 0,0.4883 l 0,52.0878 q 0,1.7905 0,2.8485 0.081387,1.0581 0.2441615,3.0928 0.1627743,2.0346 0.5697101,3.3368 0.4883229,1.2208 1.2208073,2.6044 0.7324844,1.3836 1.9532917,2.1161 1.3021945,0.6511 3.0113247,0.6511 z"
         inkscape:connector-curvature="0" />
      <path
         id="path5326"
         style="font-style:normal;font-variant:normal;font-weight:normal;font-stretch:normal;font-family:Anton;-inkscape-font-specification:Anton;fill:#ffffff;fill-opacity:1;stroke:none;stroke-width:0.80000001;stroke-miterlimit:4;stroke-dasharray:none;stroke-opacity:1"
         d="m 115.19148,969.34733 0,129.64977 -27.99718,0 -14.324139,-64.8656 0,64.8656 -27.997181,0 0,-129.64977 29.46215,0 13.184719,62.01697 0,-62.01697 27.671631,0 z"
         inkscape:connector-curvature="0" />
      <path
         id="path5328"
         style="font-style:normal;font-variant:normal;font-weight:normal;font-stretch:normal;font-family:Anton;-inkscape-font-specification:Anton;fill:#ffffff;fill-opacity:1;stroke:none;stroke-width:0.80000001;stroke-miterlimit:4;stroke-dasharray:none;stroke-opacity:1"
         d="m 129.51562,1098.9971 0,-129.64977 57.29656,0 0,25.14863 -28.15996,0 0,25.31144 27.02054,0 0,24.3347 -27.02054,0 0,29.5436 30.03186,0 0,25.3114 -59.16846,0 z"
         inkscape:connector-curvature="0" />
    </g>
    <path
       style="opacity:1;fill:#ffffff;fill-opacity:1;stroke:none;stroke-width:0.80000001;stroke-linecap:butt;stroke-linejoin:miter;stroke-miterlimit:4;stroke-dasharray:none;stroke-dashoffset:0;stroke-opacity:1"
       d="m 304.8983,775.60779 130.9082,0 0,130.90816 C 359.4512,830.16086 360.3132,831.02243 304.8983,775.60779 Z"
       id="path10311"
       inkscape:connector-curvature="0" />
    <rect
       style="opacity:1;fill:#ffffff;fill-opacity:1;stroke:none;stroke-width:0.80000001;stroke-linecap:butt;stroke-linejoin:miter;stroke-miterlimit:4;stroke-dasharray:none;stroke-dashoffset:0;stroke-opacity:1"
       id="rect10313"
       width="161.31738"
       height="77.151794"
       x="-493.27362"
       y="819.5614"
       transform="matrix(0.71032232,-0.70387655,0.71032232,0.70387655,0,0)" />
    <rect
       y="901.42242"
       x="-831.19171"
       height="76.799347"
       width="1118.2677"
       id="rect10315"
       style="opacity:1;fill:#ffffff;fill-opacity:1;stroke:none;stroke-width:0.80000001;stroke-linecap:butt;stroke-linejoin:miter;stroke-miterlimit:4;stroke-dasharray:none;stroke-dashoffset:0;stroke-opacity:1" />
  </g>
</svg>
