<?xml version="1.0" encoding="UTF-8" standalone="no"?>
<svg
   xmlns:dc="http://purl.org/dc/elements/1.1/"
   xmlns:cc="http://creativecommons.org/ns#"
   xmlns:rdf="http://www.w3.org/1999/02/22-rdf-syntax-ns#"
   xmlns:svg="http://www.w3.org/2000/svg"
   xmlns="http://www.w3.org/2000/svg"
   xmlns:sodipodi="http://sodipodi.sourceforge.net/DTD/sodipodi-0.dtd"
   xmlns:inkscape="http://www.inkscape.org/namespaces/inkscape"
   style="shape-rendering:crispEdges"
   sodipodi:docname="rd1.svg"
   height="0.81361759in"
   width="3.9491434in"
   version="1.1"
   inkscape:version="0.91 r13725"
   viewBox="0 0 355.42493 73.225169"
   id="svg2"
   inkscape:export-filename="/Users/alexloya/Desktop/rd1.png"
   inkscape:export-xdpi="300"
   inkscape:export-ydpi="300">
  <metadata
     id="metadata64">
    <rdf:RDF>
      <cc:Work
         rdf:about="">
        <dc:format>image/svg+xml</dc:format>
        <dc:type
           rdf:resource="http://purl.org/dc/dcmitype/StillImage" />
        <dc:title></dc:title>
      </cc:Work>
    </rdf:RDF>
  </metadata>
  <defs
     id="defs62" />
  <sodipodi:namedview
     fit-margin-left="0.1"
     inkscape:showpageshadow="false"
     inkscape:zoom="2.49"
     borderopacity="1.0"
     inkscape:current-layer="g6"
     inkscape:cx="166.97922"
     inkscape:cy="27.222645"
     inkscape:window-maximized="0"
     showgrid="false"
     fit-margin-right="0.1"
     units="in"
     inkscape:document-units="px"
     bordercolor="#666666"
     inkscape:window-x="9"
     inkscape:window-y="0"
     fit-margin-bottom="0.1"
     inkscape:window-width="1440"
     inkscape:pageopacity="0.0"
     inkscape:pageshadow="2"
     pagecolor="#ffffff"
     inkscape:window-height="813"
     showborder="true"
     fit-margin-top="0.1"
     id="namedview4" />
  <g
     inkscape:label="Layer 1"
     inkscape:groupmode="layer"
     transform="translate(530.80005,-946.37445)"
     id="g6">
    <g
       id="g8"
       style="fill:#465079">
      <path
         d="m -521.8,955.83 15.265,0 q 5.1946,0 7.8374,2.8251 2.6428,2.8251 2.6428,7.6096 0,2.9162 -1.4581,5.1946 -1.4581,2.2328 -3.9643,3.463 0.50123,0.4101 0.86576,0.95689 0.36453,0.5468 0.8202,1.5948 l 3.3719,7.7007 -8.931,0 -3.0985,-7.0628 q -0.36453,-0.82019 -0.91133,-1.1392 -0.50122,-0.36453 -1.4581,-0.36453 l -2.415,0 0,8.5665 -8.5665,0 0,-29.345 z m 13.078,14.217 q 1.8682,0 2.8707,-0.9569 1.048,-1.0024 1.048,-2.8251 0,-3.8731 -3.6453,-3.8731 l -4.7845,0 0,7.6551 4.5111,0 z"
         id="path10"
         inkscape:connector-curvature="0" />
      <path
         d="m -492.88,955.83 22.236,0 0,6.5616 -13.67,0 0,4.7845 11.984,0 0,6.6527 -11.984,0 0,4.7845 13.67,0 0,6.5615 -22.236,0 0,-29.345 z"
         id="path12"
         inkscape:connector-curvature="0" />
      <path
         d="m -457.52,955.83 9.0677,0 11.255,29.345 -8.931,0 -2.4606,-6.2426 -8.8399,0 -2.415,6.2426 -8.931,0 11.255,-29.345 z m 7.7918,16.951 -3.2808,-8.612 -3.2808,8.612 6.5616,0 z"
         id="path14"
         inkscape:connector-curvature="0" />
      <path
         d="m -434.05,955.83 13.123,0 q 7.0172,0 10.617,3.5542 3.6453,3.5086 3.6453,11.3 0,7.4273 -3.6453,10.981 -3.5997,3.5086 -10.617,3.5086 l -13.123,0 0,-29.345 z m 12.03,22.783 q 2.2783,0 3.6909,-0.63793 1.4126,-0.68349 2.1416,-2.3694 0.77463,-1.7315 0.77463,-4.9212 0,-3.2352 -0.68349,-5.0123 -0.6835,-1.8226 -2.1416,-2.5517 -1.4126,-0.72906 -3.782,-0.72906 l -3.463,0 0,16.222 3.463,0 z"
         id="path16"
         inkscape:connector-curvature="0" />
      <path
         d="m -397.16,974.42 -10.571,-18.591 8.931,0 5.9236,11.073 5.9236,-11.073 8.931,0 -10.571,18.591 0,10.754 -8.5665,0 0,-10.754 z"
         id="path18"
         inkscape:connector-curvature="0" />
      <path
         d="m -374.78,955.83 13.123,0 q 7.0172,0 10.617,3.5542 3.6453,3.5086 3.6453,11.3 0,7.4273 -3.6453,10.981 -3.5997,3.5086 -10.617,3.5086 l -13.123,0 0,-29.345 z m 12.03,22.783 q 2.2783,0 3.6909,-0.63793 1.4126,-0.68349 2.1416,-2.3694 0.77462,-1.7315 0.77462,-4.9212 0,-3.2352 -0.68349,-5.0123 -0.6835,-1.8226 -2.1416,-2.5517 -1.4126,-0.72906 -3.782,-0.72906 l -3.463,0 0,16.222 3.463,0 z"
         id="path20"
         inkscape:connector-curvature="0" />
      <path
         d="m -335.87,955.83 9.0677,0 11.255,29.345 -8.931,0 -2.4606,-6.2426 -8.8399,0 -2.415,6.2426 -8.931,0 11.255,-29.345 z m 7.7918,16.951 -3.2808,-8.612 -3.2808,8.612 6.5615,0 z"
         id="path22"
         inkscape:connector-curvature="0" />
      <path
         d="m -308.87,974.42 -10.571,-18.591 8.931,0 5.9236,11.073 5.9236,-11.073 8.931,0 -10.571,18.591 0,10.754 -8.5665,0 0,-10.754 z"
         id="path24"
         inkscape:connector-curvature="0" />
    </g>
    <g
       id="g26"
       style="fill:#ff6600">
      <path
         d="m -272.87,985.63 q -6.6982,0 -9.9334,-3.782 -3.2352,-3.782 -3.2352,-11.209 0,-7.883 3.1896,-11.574 3.1896,-3.6909 9.979,-3.6909 6.7894,0 9.979,3.6909 3.1896,3.6909 3.1896,11.574 0,7.4273 -3.2352,11.209 -3.2352,3.782 -9.9334,3.782 z m 0,-2.1416 q 5.4224,0 8.0197,-3.0985 2.6428,-3.1441 2.6428,-9.7512 0,-4.7845 -1.1847,-7.6551 -1.1392,-2.8707 -3.463,-4.1465 -2.3239,-1.2759 -6.0148,-1.2759 -3.6909,0 -6.0603,1.2759 -2.3239,1.2758 -3.5086,4.1465 -1.1392,2.8707 -1.1392,7.6551 0,6.6071 2.5973,9.7512 2.6428,3.0985 8.1108,3.0985 z"
         id="path28"
         inkscape:connector-curvature="0" />
      <path
         d="m -253.8,955.83 2.3694,0 18.181,25.608 0,-25.608 2.5061,0 0,29.345 -2.415,0 -18.135,-25.563 0,25.563 -2.5061,0 0,-29.345 z"
         id="path30"
         inkscape:connector-curvature="0" />
      <path
         d="m -223.99,955.83 19.183,0 0,2.0505 -16.677,0 0,11.619 15.082,0 0,2.0049 -15.082,0 0,11.665 16.677,0 0,2.0049 -19.183,0 0,-29.345 z"
         id="path32"
         inkscape:connector-curvature="0" />
    </g>
    <g
       id="g34">
      <path
         d="m -377.48,1006.9 q -1.2222,0 -2.1501,-0.3394 -0.92794,-0.3395 -1.7201,-1.0864 l -0.11316,1.1995 -1.0411,0 0,-15.254 1.2448,0 0,5.4319 q 1.5617,-1.1316 3.7797,-1.1316 4.7981,0 4.7981,5.4997 0,2.8744 -1.2448,4.2776 -1.2448,1.4032 -3.5533,1.4032 z m -0.29423,-1.0184 q 2.037,0 2.9423,-1.1543 0.92794,-1.1543 0.92794,-3.5081 0,-2.3538 -0.95057,-3.3949 -0.95058,-1.0637 -2.9649,-1.0637 -2.0369,0 -3.4402,1.1769 l 0,6.4956 q 1.358,1.4485 3.4854,1.4485 z"
         id="path36"
         inkscape:connector-curvature="0" />
      <path
         d="m -369.41,1010.6 q -0.97321,0 -1.6296,-0.249 l 0,-1.0411 q 0.61108,0.2263 1.3806,0.2263 0.74688,0 1.2222,-0.3394 0.47528,-0.3169 0.79214,-0.9054 0.3395,-0.5658 0.86005,-1.7427 l -4.685,-10.66 1.2901,0 4.0286,9.3247 4.1871,-9.3247 1.2674,0 -4.6397,10.388 q -0.67899,1.5391 -1.1769,2.3991 -0.47529,0.86 -1.1995,1.3806 -0.70162,0.5432 -1.6975,0.5432 z"
         id="path38"
         inkscape:connector-curvature="0" />
      <path
         d="m -343.11,1006.9 q -3.3496,0 -5.0245,-1.9011 -1.6748,-1.9012 -1.6748,-5.2055 0,-3.757 1.5843,-5.8392 1.6069,-2.0822 5.0924,-2.0822 2.3085,0 4.1644,0.65635 l 0,1.109 q -1.8333,-0.67898 -4.0513,-0.67898 -3.0102,0 -4.3002,1.7654 -1.2674,1.7427 -1.2674,5.0697 0,6.04293 5.6356,6.04293 1.0411,0 2.0822,-0.1584 1.0637,-0.1584 1.9012,-0.4527 l 0,1.109 q -1.8106,0.5658 -4.1418,0.5658 z"
         id="path40"
         inkscape:connector-curvature="0" />
      <path
         d="m -330.93,1006.9 q -3.327,0 -4.9339,-1.8785 -1.6069,-1.8785 -1.6069,-5.5676 0,-3.9155 1.5843,-5.7487 1.5843,-1.8332 4.9566,-1.8332 3.3723,0 4.9566,1.8332 1.5843,1.8332 1.5843,5.7487 0,3.6891 -1.6069,5.5676 -1.6069,1.8785 -4.9339,1.8785 z m 0,-1.0637 q 2.6933,0 3.9834,-1.539 1.3127,-1.5617 1.3127,-4.8434 0,-2.3764 -0.58845,-3.8023 -0.56582,-1.4259 -1.7201,-2.0596 -1.1543,-0.63372 -2.9875,-0.63372 -1.8332,0 -3.0102,0.63372 -1.1543,0.63371 -1.7427,2.0596 -0.56582,1.4259 -0.56582,3.8023 0,3.2817 1.2901,4.8434 1.3127,1.539 4.0286,1.539 z"
         id="path42"
         inkscape:connector-curvature="0" />
      <path
         d="m -321.46,992.09 6.0882,0 q 2.218,0 3.2818,1.1543 1.0637,1.1316 1.0637,3.1912 0,1.6975 -0.81478,2.7612 -0.81478,1.0637 -2.3991,1.358 0.47529,0.2263 0.70162,0.5658 0.24896,0.3169 0.56582,0.9958 l 1.9464,4.5492 -1.2674,0 -1.9238,-4.3907 q -0.24896,-0.5659 -0.52056,-0.8601 -0.27159,-0.2942 -0.74688,-0.43 -0.47529,-0.1584 -1.3127,-0.1584 l -3.4176,0 0,5.8392 -1.2448,0 0,-14.575 z m 5.7261,7.7404 q 3.4628,0 3.4628,-3.3949 0,-3.327 -3.1912,-3.327 l -4.7529,0 0,6.7219 4.4813,0 z"
         id="path44"
         inkscape:connector-curvature="0" />
      <path
         d="m -308.11,992.09 1.1769,0 9.0305,12.72 0,-12.72 1.2448,0 0,14.575 -1.1995,0 -9.0078,-12.697 0,12.697 -1.2448,0 0,-14.575 z"
         id="path46"
         inkscape:connector-curvature="0" />
      <path
         d="m -293.3,992.09 9.5284,0 0,1.0185 -8.2836,0 0,5.7714 7.4914,0 0,0.99584 -7.4914,0 0,5.79396 8.2836,0 0,0.9958 -9.5284,0 0,-14.57496 z"
         id="path48"
         inkscape:connector-curvature="0" />
      <path
         d="m -281.06,992.09 6.0882,0 q 2.218,0 3.2818,1.1543 1.0637,1.1316 1.0637,3.1912 0,1.6975 -0.81478,2.7612 -0.81478,1.0637 -2.3991,1.358 0.47529,0.2263 0.70161,0.5658 0.24896,0.3169 0.56582,0.9958 l 1.9464,4.5492 -1.2674,0 -1.9238,-4.3907 q -0.24896,-0.5659 -0.52055,-0.8601 -0.2716,-0.2942 -0.74688,-0.43 -0.47529,-0.1584 -1.3127,-0.1584 l -3.4176,0 0,5.8392 -1.2448,0 0,-14.575 z m 5.7261,7.7404 q 3.4628,0 3.4628,-3.3949 0,-3.327 -3.1912,-3.327 l -4.7529,0 0,6.7219 4.4813,0 z"
         id="path50"
         inkscape:connector-curvature="0" />
      <path
         d="m -263.57,1006.9 q -2.6254,0 -4.2323,-0.6337 l 0,-1.109 q 1.8559,0.679 4.1418,0.679 2.1728,0 3.2365,-0.679 1.0637,-0.679 1.0637,-2.1954 0,-0.9279 -0.43002,-1.5163 -0.40739,-0.5885 -1.3353,-0.9733 -0.90531,-0.4073 -2.5575,-0.76947 -2.467,-0.54319 -3.4854,-1.4485 -0.99584,-0.90531 -0.99584,-2.467 0,-1.8332 1.3127,-2.8744 1.3127,-1.0411 3.9155,-1.0411 1.1316,0 2.1954,0.18106 1.0864,0.15843 1.7201,0.36212 l 0,1.109 q -1.6296,-0.56582 -3.6665,-0.56582 -2.1048,0 -3.1912,0.67898 -1.0637,0.67898 -1.0637,2.1501 0,0.83742 0.36213,1.358 0.38476,0.52055 1.2448,0.90531 0.86005,0.36212 2.5349,0.74688 2.6028,0.61108 3.6212,1.58434 1.0411,0.9732 1.0411,2.5801 0,1.9465 -1.3806,2.9423 -1.3806,0.9958 -4.0513,0.9958 z"
         id="path52"
         inkscape:connector-curvature="0" />
      <path
         d="m -251.65,993.1 -5.0245,0 0,-1.0185 11.294,0 0,1.0185 -5.0245,0 0,13.557 -1.2448,0 0,-13.557 z"
         id="path54"
         inkscape:connector-curvature="0" />
      <path
         d="m -238.06,1006.9 q -3.327,0 -4.9339,-1.8785 -1.6069,-1.8785 -1.6069,-5.5676 0,-3.9155 1.5843,-5.7487 1.5843,-1.8332 4.9566,-1.8332 3.3723,0 4.9566,1.8332 1.5843,1.8332 1.5843,5.7487 0,3.6891 -1.6069,5.5676 -1.6069,1.8785 -4.934,1.8785 z m 0,-1.0637 q 2.6933,0 3.9834,-1.539 1.3127,-1.5617 1.3127,-4.8434 0,-2.3764 -0.58845,-3.8023 -0.56582,-1.4259 -1.7201,-2.0596 -1.1543,-0.63372 -2.9875,-0.63372 -1.8332,0 -3.0102,0.63372 -1.1543,0.63371 -1.7427,2.0596 -0.56582,1.4259 -0.56582,3.8023 0,3.2817 1.2901,4.8434 1.3127,1.539 4.0286,1.539 z"
         id="path56"
         inkscape:connector-curvature="0" />
      <path
         d="m -228.59,992.09 1.1769,0 9.0305,12.72 0,-12.72 1.2448,0 0,14.575 -1.1995,0 -9.0078,-12.697 0,12.697 -1.2448,0 0,-14.575 z"
         id="path58"
         inkscape:connector-curvature="0" />
      <path
         d="m -213.78,992.09 9.5284,0 0,1.0185 -8.2836,0 0,5.7714 7.4914,0 0,0.99584 -7.4914,0 0,5.79396 8.2836,0 0,0.9958 -9.5284,0 0,-14.57496 z"
         id="path60"
         inkscape:connector-curvature="0" />
    </g>
    <text
       xml:space="preserve"
       style="font-style:normal;font-weight:normal;font-size:40px;line-height:125%;font-family:sans-serif;letter-spacing:0px;word-spacing:0px;fill:#000000;fill-opacity:1;stroke:none;stroke-width:1px;stroke-linecap:butt;stroke-linejoin:miter;stroke-opacity:1"
       x="-200.16432"
       y="964.66113"
       id="text4192"
       sodipodi:linespacing="125%"><tspan
         sodipodi:role="line"
         id="tspan4194"
         x="-200.16432"
         y="964.66113"
         style="font-size:12.50007153px" /></text>
    <text
       xml:space="preserve"
       style="font-style:normal;font-weight:normal;font-size:40px;line-height:125%;font-family:sans-serif;letter-spacing:0px;word-spacing:0px;fill:#000000;fill-opacity:1;stroke:none;stroke-width:1px;stroke-linecap:butt;stroke-linejoin:miter;stroke-opacity:1"
       x="-199.88245"
       y="964.2334"
       id="text4198"
       sodipodi:linespacing="125%"><tspan
         sodipodi:role="line"
         id="tspan4200"
         x="-199.88245"
         y="964.2334"
         style="font-size:11.25006485px">TM</tspan></text>
  </g>
</svg>
