<svg width="1267" height="203" viewBox="0 0 1267 203" version="1.1" xmlns="http://www.w3.org/2000/svg" xmlns:xlink="http://www.w3.org/1999/xlink" xmlns:figma="http://www.figma.com/figma/ns">
<title>logoclean4_gan</title>
<desc>Created using Figma</desc>
<g id="Canvas" transform="translate(385 -53)" figma:type="canvas">
<g id="logoclean4_gan" figma:type="frame">
<g id="layer1" figma:type="frame">
<g id="text10307" figma:type="frame">
<g id="path5308" figma:type="vector">
<use xlink:href="#path0_fill" transform="matrix(1.24811 0 0 0.80121 -379.721 53.2608)" fill="#F2C02E"/>
</g>
<g id="path5310" figma:type="vector">
<use xlink:href="#path1_fill" transform="matrix(1.24811 0 0 0.80121 -278.852 53)" fill="#F2C02E"/>
</g>
<g id="path5312" figma:type="vector">
<use xlink:href="#path2_fill" transform="matrix(1.24811 0 0 0.80121 -175.139 54.1086)" fill="#F2C02E"/>
</g>
<g id="path5314" figma:type="vector">
<use xlink:href="#path3_fill" transform="matrix(1.24811 0 0 0.80121 -73.5586 54.1086)" fill="#F2C02E"/>
</g>
<g id="path5316" figma:type="vector">
<use xlink:href="#path4_fill" transform="matrix(1.24811 0 0 0.80121 32.0849 54.1086)" fill="#F2C02E"/>
</g>
<g id="path5318" figma:type="vector">
<use xlink:href="#path5_fill" transform="matrix(1.24811 0 0 0.80121 119.85 54.1086)" fill="#F2C02E"/>
</g>
<g id="path5320" figma:type="vector">
<use xlink:href="#path6_fill" transform="matrix(1.24811 0 0 0.80121 217.469 53.1956)" fill="#F2C02E"/>
</g>
<g id="path5322" figma:type="vector">
<use xlink:href="#path7_fill" transform="matrix(1.24811 0 0 0.80121 311.329 54.1086)" fill="#F2C02E"/>
</g>
<g id="path5324" figma:type="vector">
<use xlink:href="#path8_fill" transform="matrix(1.24811 0 0 0.80121 398.485 53)" fill="#F2C02E"/>
</g>
<g id="path5326" figma:type="vector">
<use xlink:href="#path9_fill" transform="matrix(1.24811 0 0 0.80121 502.198 54.1086)" fill="#F2C02E"/>
</g>
<g id="path5328" figma:type="vector">
<use xlink:href="#path10_fill" transform="matrix(1.24811 0 0 0.80121 607.842 54.1086)" fill="#F2C02E"/>
</g>
</g>
<g id="path10311" figma:type="vector">
<use xlink:href="#path11_fill" transform="translate(751.09 53.0651)" fill="#F2C02E"/>
</g>
<g id="rect10313" figma:type="vector">
<use xlink:href="#path12_fill" transform="matrix(0.710322 -0.703877 0.710322 0.703877 677.961 201.531)" fill="#F2C02E"/>
</g>
<g id="rect10315" figma:type="vector">
<use xlink:href="#path13_fill" transform="translate(-385 178.88)" fill="#F2C02E"/>
</g>
</g>
</g>
</g>
<defs>
<path id="path0_fill" d="M 70.9696 74.8762L 70.9696 99.3737C 70.9696 110.659 67.7684 118.961 61.3659 124.278C 54.9634 129.541 46.0109 132.173 34.5082 132.173C 24.3077 132.173 16.0062 129.27 9.60369 123.464C 3.20124 117.604 -5.64453e-06 109.303 -5.64453e-06 98.5598L -5.64453e-06 38.4147C -5.64453e-06 25.5555 2.82145 15.9519 8.46429 9.60371C 14.1614 3.20125 23.0597 6.64062e-06 35.1592 6.64062e-06C 40.0967 6.64062e-06 44.6544 0.62396 48.8323 1.87189C 53.0101 3.06557 56.6997 4.85612 59.9009 7.24348C 63.1564 9.63083 65.7065 12.7778 67.5513 16.6844C 69.3961 20.5367 70.3185 24.9859 70.3185 30.0319L 70.3185 52.9017L 41.9958 52.9017L 41.9958 37.845C 41.9958 30.0861 39.7169 26.2067 35.1592 26.2067C 32.4463 26.2067 30.6558 27.0748 29.7877 28.811C 28.9196 30.493 28.4855 32.8533 28.4855 35.8917L 28.4855 97.1763C 28.4855 99.8349 29.0823 102.141 30.276 104.094C 31.5239 106.048 33.1517 107.024 35.1592 107.024C 37.004 107.024 38.6047 106.319 39.9611 104.908C 41.3176 103.443 41.9958 100.866 41.9958 97.1763L 41.9958 74.8762L 70.9696 74.8762L 70.9696 74.8762Z"/>
<path id="path1_fill" d="M -1.17969e-05 96.0369L -1.17969e-05 34.264C -1.17969e-05 23.4666 2.90281 15.1109 8.70842 9.19677C 14.5683 3.22838 23.3581 0.162768 35.0779 -4.88281e-06C 47.1232 0.162768 56.0486 3.22838 61.8542 9.19677C 67.7141 15.1109 70.6441 23.4666 70.6441 34.264L 70.6441 96.0369C 70.6441 101.3 69.9658 106.102 68.6094 110.442C 67.3072 114.729 65.2996 118.554 62.5867 121.918C 59.8738 125.282 56.1842 127.886 51.5181 129.731C 46.9061 131.576 41.5888 132.417 35.5662 132.254C 29.218 132.417 23.7108 131.576 19.0446 129.731C 14.4327 127.886 10.7702 125.282 8.0573 121.918C 5.3444 118.554 3.30975 114.729 1.9533 110.442C 0.651103 106.102 -1.17969e-05 101.3 -1.17969e-05 96.0369L -1.17969e-05 96.0369ZM 35.322 106.861C 36.3529 106.861 37.2482 106.671 38.0078 106.292C 38.8217 105.858 39.4456 105.234 39.8797 104.42C 40.368 103.552 40.7478 102.738 41.0191 101.978C 41.2904 101.218 41.4803 100.215 41.5889 98.9668C 41.6974 97.6646 41.7516 96.6879 41.7516 96.0369C 41.8059 95.3315 41.833 94.382 41.833 93.1882C 41.833 92.917 41.833 92.6999 41.833 92.5371L 41.833 40.4495C 41.833 40.1239 41.833 39.4728 41.833 38.4962C 41.8873 37.5195 41.8873 36.787 41.833 36.2986C 41.833 35.8103 41.8059 35.105 41.7516 34.1827C 41.7516 33.206 41.6702 32.4735 41.5074 31.9852C 41.3989 31.4426 41.2361 30.7915 41.0191 30.0319C 40.8563 29.218 40.6122 28.6211 40.2867 28.2413C 39.9611 27.8073 39.5813 27.3732 39.1472 26.9391C 38.7131 26.4508 38.1706 26.1253 37.5195 25.9625C 36.8684 25.7455 36.1359 25.637 35.322 25.637C 34.1826 25.637 33.1788 25.8269 32.3107 26.2067C 31.4968 26.5865 30.8457 27.2104 30.3574 28.0785C 29.8691 28.8924 29.4621 29.6521 29.1366 30.3574C 28.811 31.0085 28.594 32.0123 28.4855 33.3688C 28.377 34.671 28.3227 35.6205 28.3227 36.2173C 28.3227 36.7599 28.3227 37.7094 28.3227 39.0659C 28.3227 39.2829 28.3227 39.4728 28.3227 39.6356C 28.3227 39.7984 28.3227 39.9611 28.3227 40.1238L 28.3227 92.2117C 28.3227 93.4053 28.3227 94.3548 28.3227 95.0602C 28.377 95.7656 28.4584 96.7965 28.5669 98.1529C 28.6754 99.5093 28.8653 100.622 29.1366 101.49C 29.4621 102.304 29.8691 103.172 30.3574 104.094C 30.8457 105.017 31.4968 105.722 32.3107 106.21C 33.1788 106.644 34.1826 106.861 35.322 106.861L 35.322 106.861Z"/>
<path id="path2_fill" d="M 28.9738 70.6441C 28.9738 70.6441 28.9738 90.3126 28.9738 129.65L -8.83789e-06 129.65L -8.83789e-06 2.10742e-05L 43.9491 2.10742e-05C 48.4525 2.10742e-05 52.3048 0.623968 55.506 1.87191C 58.7073 3.06558 61.2303 4.66617 63.0751 6.67373C 64.9198 8.62702 66.3577 11.2586 67.3886 14.5683C 68.4737 17.8238 69.1791 21.1064 69.5046 24.4162C 69.8302 27.6716 69.9929 31.6325 69.9929 36.2987C 69.9929 38.7403 69.9387 40.7478 69.8302 42.3214C 69.7759 43.8406 69.4775 45.7938 68.9349 48.1812C 68.4466 50.5143 67.7412 52.4676 66.8188 54.0411C 65.8965 55.6146 64.4858 57.1609 62.5867 58.6801C 60.742 60.1993 58.4902 61.3659 55.8316 62.1798C 58.4902 62.6681 60.6877 63.5905 62.4239 64.947C 64.1602 66.2492 65.4081 67.8769 66.1677 69.8302C 66.9274 71.7834 67.4428 73.6011 67.7141 75.2832C 67.9854 76.9109 68.1211 78.7557 68.1211 80.8175C 68.1211 102.249 68.0125 118.527 67.7955 129.65L 39.7983 129.65L 39.7983 79.1082C 39.7983 77.1007 39.5813 75.5001 39.1472 74.3065C 38.7674 73.1128 38.0078 72.2719 36.8684 71.7835C 35.7832 71.2409 34.7252 70.9153 33.6943 70.8068C 32.6634 70.6983 31.0899 70.6441 28.9738 70.6441ZM 29.1366 24.0092L 29.1366 48.1812L 36.2987 48.1812C 40.0967 48.1812 41.9958 44.2203 41.9958 36.2987C 41.9958 31.0356 41.2362 27.6717 39.7169 26.2067C 38.252 24.7417 35.2407 24.0092 30.683 24.0092L 29.1366 24.0092L 29.1366 24.0092Z"/>
<path id="path3_fill" d="M 70.3185 2.10742e-05L 70.3185 129.65L 42.3213 129.65L 27.9972 64.7841L 27.9972 129.65L 7.67578e-06 129.65L 7.67578e-06 2.10742e-05L 29.4621 2.10742e-05L 42.6469 62.0169L 42.6469 2.10742e-05L 70.3185 2.10742e-05L 70.3185 2.10742e-05Z"/>
<path id="path4_fill" d="M 6.83594e-06 129.65L 6.83594e-06 2.10742e-05L 57.2965 2.10742e-05L 57.2965 25.1486L 29.1366 25.1486L 29.1366 50.46L 56.1571 50.46L 56.1571 74.7948L 29.1366 74.7948L 29.1366 104.338L 59.1685 104.338L 59.1685 129.65L 6.83594e-06 129.65Z"/>
<path id="path5_fill" d="M 28.9738 70.6441C 28.9738 70.6441 28.9738 90.3126 28.9738 129.65L 8.28125e-06 129.65L 8.28125e-06 2.10742e-05L 43.9491 2.10742e-05C 48.4525 2.10742e-05 52.3048 0.623968 55.506 1.87191C 58.7073 3.06558 61.2303 4.66617 63.0751 6.67373C 64.9198 8.62702 66.3577 11.2586 67.3886 14.5683C 68.4737 17.8238 69.1791 21.1064 69.5046 24.4162C 69.8302 27.6716 69.993 31.6325 69.993 36.2987C 69.993 38.7403 69.9387 40.7478 69.8302 42.3214C 69.7759 43.8406 69.4775 45.7938 68.9349 48.1812C 68.4466 50.5143 67.7412 52.4676 66.8189 54.0411C 65.8965 55.6146 64.4858 57.1609 62.5867 58.6801C 60.742 60.1993 58.4902 61.3659 55.8316 62.1798C 58.4902 62.6681 60.6877 63.5905 62.4239 64.947C 64.1602 66.2492 65.4081 67.8769 66.1678 69.8302C 66.9274 71.7834 67.4428 73.6011 67.7141 75.2832C 67.9854 76.9109 68.1211 78.7557 68.1211 80.8175C 68.1211 102.249 68.0125 118.527 67.7955 129.65L 39.7983 129.65L 39.7983 79.1082C 39.7983 77.1007 39.5813 75.5001 39.1472 74.3065C 38.7674 73.1128 38.0078 72.2719 36.8684 71.7835C 35.7832 71.2409 34.7252 70.9153 33.6943 70.8068C 32.6634 70.6983 31.0899 70.6441 28.9738 70.6441L 28.9738 70.6441ZM 29.1366 24.0092L 29.1366 48.1812L 36.2987 48.1812C 40.0967 48.1812 41.9958 44.2203 41.9958 36.2987C 41.9958 31.0356 41.2362 27.6717 39.7169 26.2067C 38.252 24.7417 35.2406 24.0092 30.683 24.0092L 29.1366 24.0092Z"/>
<path id="path6_fill" d="M 36.9498 132.254C 23.6565 132.254 14.1614 129.216 8.46427 123.139C 2.82143 117.062 2.01172e-06 107.675 2.01172e-06 94.9787L 2.01172e-06 82.2824L 28.3227 82.2824L 28.3227 93.9208C 28.3227 102.276 30.6016 106.454 35.1592 106.454C 37.2753 106.454 38.9302 105.641 40.1239 104.013C 41.3718 102.385 41.9958 100.242 41.9958 97.5832C 41.9958 94.1107 41.5074 91.1808 40.5308 88.7934C 39.6084 86.4061 38.1706 84.1544 36.2173 82.0383C 34.3183 79.868 31.1713 76.8837 26.7764 73.0857L 14.6497 62.5866C 4.88323 54.1766 2.01172e-06 44.6815 2.01172e-06 34.1012C 2.01172e-06 22.5985 2.92994 14.0529 8.78981 8.46427C 14.7039 2.82142 22.8155 -2.42578e-05 33.1246 -2.42578e-05C 33.3959 -2.42578e-05 33.64 -2.42578e-05 33.8571 -2.42578e-05C 34.0741 -2.42578e-05 35.5119 -2.42578e-05 38.1706 -2.42578e-05C 40.8292 -2.42578e-05 44.2475 0.623984 48.4254 1.87192C 52.6032 3.0656 56.3199 5.10025 59.5754 7.97593C 62.8309 10.7974 65.2725 14.7582 66.9002 19.8585C 68.528 24.9045 69.3419 31.0899 69.3419 38.4147L 40.2866 38.4147L 40.1239 30.6016C 40.0696 29.1366 39.4456 27.8344 38.252 26.695C 37.0583 25.5556 35.729 24.9859 34.264 24.9859C 32.365 24.9859 30.7372 25.5827 29.3808 26.7764C 28.0786 27.9158 27.4275 29.4079 27.4275 31.2527C 27.4275 34.9422 30.1133 38.9573 35.4848 43.298L 52.8203 57.2966C 55.6417 59.5754 58.0833 61.9085 60.1451 64.2959C 62.2612 66.6289 63.916 68.962 65.1097 71.2951C 66.3577 73.5739 67.3614 75.6629 68.121 77.562C 68.8807 79.4067 69.3961 81.4414 69.6674 83.666C 69.9929 85.8363 70.1829 87.4912 70.2371 88.6306C 70.2914 89.7158 70.3185 91.1536 70.3185 92.9441C 70.3185 97.5018 70.0201 101.653 69.4232 105.396C 68.8264 109.086 67.7684 112.667 66.2491 116.14C 64.7299 119.558 62.7224 122.433 60.2265 124.766C 57.7849 127.045 54.5837 128.863 50.6228 130.219C 46.7162 131.576 42.1586 132.254 36.9498 132.254L 36.9498 132.254Z"/>
<path id="path7_fill" d="M 3.20313e-06 2.10742e-05L 62.6681 2.10742e-05L 62.6681 24.9859L 45.6582 24.9859L 45.6582 129.65L 17.0099 129.65L 17.0099 24.9859L 3.20313e-06 24.9859L 3.20313e-06 2.10742e-05Z"/>
<path id="path8_fill" d="M -1.11914e-06 96.0369L -1.11914e-06 34.264C -1.11914e-06 23.4666 2.90281 15.1109 8.70842 9.19677C 14.5683 3.22838 23.3581 0.162768 35.0779 -4.88281e-06C 47.1232 0.162768 56.0486 3.22838 61.8542 9.19677C 67.7141 15.1109 70.6441 23.4666 70.6441 34.264L 70.6441 96.0369C 70.6441 101.3 69.9658 106.102 68.6094 110.442C 67.3072 114.729 65.2996 118.554 62.5867 121.918C 59.8738 125.282 56.1843 127.886 51.5181 129.731C 46.9061 131.576 41.5888 132.417 35.5662 132.254C 29.218 132.417 23.7108 131.576 19.0446 129.731C 14.4327 127.886 10.7702 125.282 8.05733 121.918C 5.34442 118.554 3.30974 114.729 1.95329 110.442C 0.651098 106.102 -1.11914e-06 101.3 -1.11914e-06 96.0369ZM 35.322 106.861C 36.3529 106.861 37.2482 106.671 38.0078 106.292C 38.8217 105.858 39.4456 105.234 39.8797 104.42C 40.368 103.552 40.7478 102.738 41.0191 101.978C 41.2904 101.218 41.4803 100.215 41.5888 98.9668C 41.6974 97.6646 41.7516 96.6879 41.7516 96.0369C 41.8059 95.3315 41.833 94.382 41.833 93.1882C 41.833 92.917 41.833 92.6999 41.833 92.5371L 41.833 40.4495C 41.833 40.1239 41.833 39.4728 41.833 38.4962C 41.8873 37.5195 41.8873 36.787 41.833 36.2986C 41.833 35.8103 41.8059 35.105 41.7516 34.1827C 41.7516 33.206 41.6702 32.4735 41.5075 31.9852C 41.3989 31.4426 41.2362 30.7915 41.0191 30.0319C 40.8564 29.218 40.6122 28.6211 40.2866 28.2413C 39.9611 27.8073 39.5813 27.3732 39.1472 26.9391C 38.7132 26.4508 38.1706 26.1253 37.5195 25.9625C 36.8684 25.7455 36.1359 25.637 35.322 25.637C 34.1826 25.637 33.1788 25.8269 32.3107 26.2067C 31.4968 26.5865 30.8457 27.2104 30.3574 28.0785C 29.8691 28.8924 29.4621 29.6521 29.1366 30.3574C 28.8111 31.0085 28.594 32.0123 28.4855 33.3688C 28.377 34.671 28.3227 35.6205 28.3227 36.2173C 28.3227 36.7599 28.3227 37.7094 28.3227 39.0659C 28.3227 39.2829 28.3227 39.4728 28.3227 39.6356C 28.3227 39.7984 28.3227 39.9611 28.3227 40.1238L 28.3227 92.2117C 28.3227 93.4053 28.3227 94.3548 28.3227 95.0602C 28.377 95.7656 28.4584 96.7965 28.5669 98.1529C 28.6754 99.5093 28.8653 100.622 29.1366 101.49C 29.4621 102.304 29.8691 103.172 30.3574 104.094C 30.8457 105.017 31.4968 105.722 32.3107 106.21C 33.1788 106.644 34.1826 106.861 35.322 106.861L 35.322 106.861Z"/>
<path id="path9_fill" d="M 70.3185 2.10742e-05L 70.3185 129.65L 42.3213 129.65L 27.9972 64.7841L 27.9972 129.65L -1.78955e-06 129.65L -1.78955e-06 2.10742e-05L 29.4621 2.10742e-05L 42.6469 62.0169L 42.6469 2.10742e-05L 70.3185 2.10742e-05L 70.3185 2.10742e-05Z"/>
<path id="path10_fill" d="M 5e-06 129.65L 5e-06 2.10742e-05L 57.2966 2.10742e-05L 57.2966 25.1486L 29.1366 25.1486L 29.1366 50.46L 56.1571 50.46L 56.1571 74.7948L 29.1366 74.7948L 29.1366 104.338L 59.1685 104.338L 59.1685 129.65L 5e-06 129.65L 5e-06 129.65Z"/>
<path id="path11_fill" d="M -1.50879e-05 -1.91406e-06L 130.908 -1.91406e-06L 130.908 130.908C 54.5529 54.5531 55.4149 55.4146 -1.50879e-05 -1.91406e-06Z"/>
<path id="path12_fill" d="M 161.317 0L 0 0L 0 77.1518L 161.317 77.1518L 161.317 0Z"/>
<path id="path13_fill" d="M 1118.27 4.31641e-06L 0 4.31641e-06L 0 76.7993L 1118.27 76.7993L 1118.27 4.31641e-06Z"/>
</defs>
</svg>
